<svg width="303" height="549" viewBox="0 0 303 549" fill="none" xmlns="http://www.w3.org/2000/svg">
<rect width="303" height="549" fill="#F5F5F5"/>
<path d="M72 173H229V320C229 333.807 217.807 345 204 345H97C83.1929 345 72 333.807 72 320V173Z" fill="#8FD15C"/>
<path d="M72 162C72 120.579 105.579 87 147 87H154C195.421 87 229 120.579 229 162V168H72V162Z" fill="#8FD15C"/>
<circle cx="116.5" cy="127.5" r="7.5" fill="white"/>
<circle cx="178.5" cy="127.5" r="7.5" fill="white"/>
<path d="M25 192C25 181.507 33.5066 173 44 173V173C54.4934 173 63 181.507 63 192V305C63 315.493 54.4934 324 44 324V324C33.5066 324 25 315.493 25 305V192Z" fill="#8FD15C"/>
<path d="M99 267C99 256.507 107.507 248 118 248V248C128.493 248 137 256.507 137 267V380C137 390.493 128.493 399 118 399V399C107.507 399 99 390.493 99 380V267Z" fill="#8FD15C"/>
<path d="M169 267C169 256.507 177.507 248 188 248V248C198.493 248 207 256.507 207 267V380C207 390.493 198.493 399 188 399V399C177.507 399 169 390.493 169 380V267Z" fill="#8FD15C"/>
<rect x="89" y="75" width="6" height="30.3716" rx="3" transform="rotate(-30 89 75)" fill="#8FD15C"/>
<rect x="212.186" y="75" width="6" height="30.3716" rx="3" transform="rotate(30 212.186 75)" fill="#8FD15C"/>
<rect x="112" y="83" width="80" height="15" rx="7.5" fill="white"/>
<path d="M152 33L186.641 84H117.359L152 33Z" fill="#FF1515"/>
<circle cx="151.5" cy="33.5" r="7.5" fill="white"/>
</svg>
